# xmcd CD database file
#
# Track frame offsets:
#	162
#	25662
#	50637
#	79512
#	101562
#	129987
#
# Disc length: 2148 seconds
#
# Revision: 1
# Processed by: cddbd v1.5.2PL0 Copyright (c) Steve Scherf et al.
# Submitted via: CDex 1.51
#
DISCID=3f086206
DTITLE=La Factoria Latina - Salsa Mix
DYEAR=1990
DGENRE=Salsa
TTITLE0=Oye mi salsa
TTITLE1=Romantico latino
TTITLE2=Panchosalsa
TTITLE3=Folcloricas por salsa
TTITLE4=Factoria latina
TTITLE5=Baladas en salsa
EXTD=YEAR: 1990
EXTT0=
EXTT1=
EXTT2=
EXTT3=
EXTT4=
EXTT5=
PLAYORDER=
